<?xml version="1.0" encoding="utf-8"?><svg xmlns="http://www.w3.org/2000/svg" xmlns:xlink="http://www.w3.org/1999/xlink"><symbol fill="none" viewBox="0 0 30 30" id="icon-search" xmlns="http://www.w3.org/2000/svg"><g clip-path="url(#aclip0_1311_23518)" fill-rule="evenodd" clip-rule="evenodd" fill="#022AF5"><path d="M13.948 3.648a10.275 10.275 0 000 20.548 10.274 10.274 0 000-20.538v-.01zM.736 13.942a13.211 13.211 0 1126.413-.73 13.211 13.211 0 01-26.413.73z"/><path d="M21.154 21.138a1.463 1.463 0 012.069 0l6.358 6.358a1.463 1.463 0 01-2.07 2.07l-6.357-6.359a1.464 1.464 0 010-2.069z"/></g><defs><clipPath id="aclip0_1311_23518"><path fill="#fff" d="M0 0h30v30H0z"/></clipPath></defs></symbol><symbol fill="none" viewBox="0 0 64 64" id="wa_icon" xmlns="http://www.w3.org/2000/svg"><path d="M47.41 15.672c-4.115-4.184-9.596-6.485-15.42-6.485-12.021 0-21.803 9.922-21.803 22.114 0 3.895 1.001 7.7 2.907 11.056L10 53.813l11.56-3.078a21.497 21.497 0 0010.42 2.689h.01c12.012 0 22.01-9.921 22.01-22.113 0-5.907-2.475-11.455-6.59-15.639zM31.99 49.7c-3.26 0-6.452-.887-9.232-2.56l-.658-.399-6.855 1.823 1.826-6.783-.432-.698a18.511 18.511 0 01-2.77-9.781c0-10.13 8.133-18.378 18.131-18.378 4.842 0 9.39 1.912 12.807 5.389 3.418 3.476 5.52 8.088 5.51 12.999 0 10.14-8.338 18.388-18.327 18.388zm9.94-13.766c-.54-.28-3.222-1.614-3.723-1.793-.5-.19-.864-.28-1.227.279-.364.557-1.405 1.793-1.73 2.171-.313.369-.638.418-1.178.14-3.202-1.624-5.303-2.9-7.415-6.575-.56-.976.56-.906 1.601-3.018.177-.368.088-.687-.05-.966-.137-.279-1.227-2.998-1.678-4.104-.443-1.076-.894-.926-1.228-.946-.314-.02-.678-.02-1.041-.02-.364 0-.953.14-1.454.687-.5.558-1.905 1.893-1.905 4.612 0 2.72 1.954 5.349 2.22 5.718.274.368 3.84 5.946 9.31 8.347 3.457 1.514 4.813 1.643 6.541 1.384 1.051-.159 3.222-1.334 3.673-2.63.452-1.294.452-2.4.315-2.629-.128-.249-.491-.388-1.032-.657z" fill="#000"/></symbol></svg>