<?xml version="1.0" encoding="utf-8"?><svg xmlns="http://www.w3.org/2000/svg" xmlns:xlink="http://www.w3.org/1999/xlink"><symbol fill="none" viewBox="0 0 30 30" id="icon-search" xmlns="http://www.w3.org/2000/svg"><g clip-path="url(#aclip0_1311_23518)" fill-rule="evenodd" clip-rule="evenodd" fill="currentColor"><path d="M13.948 3.648a10.275 10.275 0 000 20.548 10.274 10.274 0 000-20.538v-.01zM.736 13.942a13.211 13.211 0 1126.413-.73 13.211 13.211 0 01-26.413.73z"/><path d="M21.154 21.138a1.463 1.463 0 012.069 0l6.358 6.358a1.463 1.463 0 01-2.07 2.07l-6.357-6.359a1.464 1.464 0 010-2.069z"/></g><defs><clipPath id="aclip0_1311_23518"><path fill="#fff" d="M0 0h30v30H0z"/></clipPath></defs></symbol><symbol viewBox="0 0 48 48" id="shopping_basket" xmlns="http://www.w3.org/2000/svg"><path d="M1.5 8c-1.039 1.681.47 3 3.433 3 2.799 0 2.823.057 4.412 10.243 1.138 7.292 2.105 10.613 3.358 11.529C14.847 34.34 37.5 34.091 37.5 32.5c0-.579-4.807-1.21-11.42-1.5-7.875-.345-11.548-.888-11.833-1.75-.315-.951 2.311-1.25 10.979-1.25 7.547 0 11.961-.422 13.079-1.25 1.781-1.32 4.22-11.939 3.295-14.349C41.173 11.286 38.015 11 26.148 11c-14.074 0-14.944-.113-15.438-2-.414-1.583-1.364-2-4.557-2C3.934 7 1.84 7.45 1.5 8m10.511 7.75c.006.962.29 3.438.631 5.5l.62 3.75h11.394c11.31 0 11.401-.019 12.369-2.565.536-1.411.975-3.886.975-5.5V14H25c-11.718 0-12.999.173-12.989 1.75m1.707 22.5C13.078 40.036 14.813 43 16.5 43s3.422-2.964 2.782-4.75C19.035 37.563 17.783 37 16.5 37s-2.535.563-2.782 1.25m16.991-.626c-1.245 1.245-.761 4.142.791 4.738 2.456.942 4.631-.442 4.303-2.739-.3-2.103-3.668-3.424-5.094-1.999" fill="currentColor" fill-rule="evenodd"/></symbol></svg>