<?xml version="1.0" encoding="utf-8"?><svg xmlns="http://www.w3.org/2000/svg" xmlns:xlink="http://www.w3.org/1999/xlink"><symbol fill="none" viewBox="0 0 30 30" id="icon-search" xmlns="http://www.w3.org/2000/svg"><g clip-path="url(#aclip0_1311_23518)" fill-rule="evenodd" clip-rule="evenodd" fill="currentColor"><path d="M13.948 3.648a10.275 10.275 0 000 20.548 10.274 10.274 0 000-20.538v-.01zM.736 13.942a13.211 13.211 0 1126.413-.73 13.211 13.211 0 01-26.413.73z"/><path d="M21.154 21.138a1.463 1.463 0 012.069 0l6.358 6.358a1.463 1.463 0 01-2.07 2.07l-6.357-6.359a1.464 1.464 0 010-2.069z"/></g><defs><clipPath id="aclip0_1311_23518"><path fill="#fff" d="M0 0h30v30H0z"/></clipPath></defs></symbol><symbol fill="none" viewBox="0 0 40 40" id="icon_telegramm" xmlns="http://www.w3.org/2000/svg"><path fill="#27A6E5" d="M0 0h40v40H0z"/><path d="M28 12.602l-3.005 15.69s-.42 1.088-1.576.566l-6.934-5.505-.033-.017c.937-.87 8.2-7.633 8.518-7.94.491-.475.186-.757-.384-.399l-10.73 7.056-4.138-1.442s-.652-.24-.714-.762c-.064-.523.735-.805.735-.805l16.874-6.855S28 11.558 28 12.602z" fill="#FEFEFE"/></symbol><symbol fill="none" viewBox="0 0 40 40" id="icon_watsapp" xmlns="http://www.w3.org/2000/svg"><path fill="#48C95F" d="M0 0h40v40H0z"/><path d="M27.927 12.063A10.428 10.428 0 0020.537 9c-5.78 0-10.464 4.667-10.464 10.427 0 1.823.512 3.646 1.39 5.177L10 30l5.561-1.458c1.537.802 3.22 1.24 4.976 1.24 5.78 0 10.463-4.667 10.463-10.428-.073-2.698-1.098-5.323-3.073-7.291zm-2.342 11.083c-.22.583-1.244 1.166-1.756 1.24a4.104 4.104 0 01-1.61-.073c-.365-.146-.878-.292-1.463-.584-2.634-1.094-4.317-3.719-4.463-3.937-.147-.146-1.098-1.386-1.098-2.698 0-1.313.659-1.896.878-2.188.22-.291.512-.291.732-.291h.512c.146 0 .366-.073.585.437.22.51.732 1.823.805 1.896a.463.463 0 010 .437c-.073.146-.146.292-.292.438-.147.146-.293.364-.366.437-.147.146-.293.292-.147.51.147.293.659 1.095 1.464 1.824 1.024.875 1.83 1.166 2.122 1.312.293.146.439.073.585-.073.146-.145.659-.729.805-1.02.146-.292.366-.22.585-.146.22.073 1.537.729 1.756.875.293.145.44.218.513.291.073.22.073.73-.147 1.313z" fill="#fff"/></symbol><symbol viewBox="0 0 48 48" id="shopping_basket" xmlns="http://www.w3.org/2000/svg"><path d="M1.5 8c-1.039 1.681.47 3 3.433 3 2.799 0 2.823.057 4.412 10.243 1.138 7.292 2.105 10.613 3.358 11.529C14.847 34.34 37.5 34.091 37.5 32.5c0-.579-4.807-1.21-11.42-1.5-7.875-.345-11.548-.888-11.833-1.75-.315-.951 2.311-1.25 10.979-1.25 7.547 0 11.961-.422 13.079-1.25 1.781-1.32 4.22-11.939 3.295-14.349C41.173 11.286 38.015 11 26.148 11c-14.074 0-14.944-.113-15.438-2-.414-1.583-1.364-2-4.557-2C3.934 7 1.84 7.45 1.5 8m10.511 7.75c.006.962.29 3.438.631 5.5l.62 3.75h11.394c11.31 0 11.401-.019 12.369-2.565.536-1.411.975-3.886.975-5.5V14H25c-11.718 0-12.999.173-12.989 1.75m1.707 22.5C13.078 40.036 14.813 43 16.5 43s3.422-2.964 2.782-4.75C19.035 37.563 17.783 37 16.5 37s-2.535.563-2.782 1.25m16.991-.626c-1.245 1.245-.761 4.142.791 4.738 2.456.942 4.631-.442 4.303-2.739-.3-2.103-3.668-3.424-5.094-1.999" fill="currentColor" fill-rule="evenodd"/></symbol></svg>