<?xml version="1.0" standalone="no"?>
<!DOCTYPE svg PUBLIC "-//W3C//DTD SVG 20010904//EN"
 "http://www.w3.org/TR/2001/REC-SVG-20010904/DTD/svg10.dtd">
<svg version="1.0" xmlns="http://www.w3.org/2000/svg"
 width="1600.000000pt" height="1600.000000pt" viewBox="0 0 1600.000000 1600.000000"
 preserveAspectRatio="xMidYMid meet">
<metadata>
Created by potrace 1.16, written by Peter Selinger 2001-2019
</metadata>
<g transform="translate(0.000000,1600.000000) scale(0.100000,-0.100000)"
fill="#000000" stroke="none">
<path d="M6480 11148 c-11 -4 -155 -142 -320 -307 l-300 -300 0 -44 c0 -25 6
-49 13 -56 18 -14 2621 -16 2612 -1 -3 6 2 10 12 11 10 0 29 2 41 3 13 2 30
-3 37 -11 8 -7 33 -13 57 -13 31 0 39 3 28 10 -8 5 -26 11 -40 12 -14 1 76 5
200 9 124 4 239 9 255 11 47 5 46 -31 -2 -68 -21 -16 -54 -44 -74 -64 -60 -58
-90 -80 -100 -74 -5 3 -9 2 -8 -3 4 -16 -13 -43 -23 -37 -6 4 -5 10 3 15 7 4
11 10 8 14 -3 3 -14 -5 -25 -17 -10 -12 -13 -18 -6 -14 7 4 12 1 12 -8 0 -10
-9 -16 -25 -16 -16 0 -25 -6 -25 -15 0 -9 -10 -19 -22 -24 -13 -5 -32 -19 -44
-32 -11 -13 -39 -39 -62 -58 -23 -18 -39 -37 -36 -42 3 -5 -2 -9 -10 -9 -9 0
-16 -4 -16 -9 0 -10 -66 -81 -75 -81 -3 0 -63 -58 -133 -130 -70 -71 -295
-299 -499 -505 -205 -207 -373 -380 -373 -385 0 -6 -7 -10 -15 -10 -8 0 -15
-6 -15 -14 0 -8 -9 -18 -20 -21 -11 -3 -20 -13 -20 -21 0 -8 -5 -14 -10 -14
-15 0 -80 -64 -80 -79 0 -6 -6 -11 -13 -11 -14 0 -117 -105 -117 -120 0 -6 -6
-10 -14 -10 -8 0 -18 -9 -21 -20 -3 -11 -10 -20 -14 -20 -4 0 -15 -17 -24 -39
-15 -34 -17 -75 -15 -357 l3 -319 30 -5 c18 -4 29 -12 27 -19 -2 -11 100 -12
575 -7 318 3 657 8 753 12 125 4 171 3 160 -5 -11 -8 -2 -11 38 -11 28 0 52 5
52 10 0 6 71 9 198 8 164 -2 180 -3 97 -8 -73 -4 -33 -7 147 -8 175 -1 247 1
250 9 2 6 27 14 55 16 44 5 56 11 80 40 15 20 38 46 51 59 12 13 22 25 22 28
0 7 89 101 270 288 74 76 134 143 133 148 -2 6 2 9 8 7 6 -1 18 9 27 23 9 13
13 21 7 18 -6 -4 -9 10 -7 36 3 37 1 43 -22 54 -20 9 -25 9 -23 -1 1 -9 -29
-12 -123 -11 -519 6 -592 9 -525 15 39 4 -218 6 -570 4 -432 -3 -634 -1 -622
6 9 5 17 17 17 24 0 8 9 15 20 15 11 0 20 4 20 10 0 5 10 20 23 34 12 13 27
30 33 38 6 7 32 31 57 52 26 22 47 44 47 49 0 6 16 24 37 41 20 17 48 43 62
59 81 87 606 607 613 607 4 0 7 3 7 8 -3 20 3 30 23 35 12 4 19 9 15 13 -4 4
5 16 20 26 16 10 24 18 19 18 -5 0 1 11 14 25 12 13 26 22 31 20 4 -3 11 0 15
6 4 8 3 9 -4 5 -19 -11 -14 2 10 29 16 19 24 22 30 13 5 -9 8 -5 8 10 0 13 4
20 10 17 6 -3 10 -2 10 3 0 5 18 28 40 51 27 28 45 39 57 35 14 -5 15 -4 4 4
-12 8 -5 20 38 62 37 36 56 48 61 40 5 -9 9 -9 14 -1 4 6 1 11 -6 11 -8 0 -7
6 5 17 10 10 25 18 34 18 9 0 18 7 20 15 4 13 3 13 -6 0 -6 -8 -11 -10 -11 -5
0 12 56 66 67 65 4 -1 10 8 15 19 4 13 13 19 23 15 10 -4 15 0 15 13 0 10 9
26 20 36 24 20 34 22 24 5 -5 -9 -2 -9 9 1 18 15 23 26 7 16 -21 -13 -9 17 20
47 17 17 30 34 30 37 0 3 11 19 25 35 14 16 25 33 25 37 0 11 -63 -22 -76 -40
-10 -12 -13 -11 -24 10 -7 13 -24 38 -37 54 -23 29 -43 52 -138 161 -25 28
-45 56 -45 62 0 6 -9 14 -20 17 -11 3 -20 15 -20 26 0 12 -7 19 -20 19 -13 0
-20 7 -20 20 0 13 -7 20 -20 20 -14 0 -20 7 -20 23 -1 13 -24 45 -60 81 -33
33 -60 68 -60 78 0 10 -6 18 -14 18 -8 0 -17 9 -21 19 -3 10 -28 40 -55 65
-28 26 -50 52 -50 59 0 16 -64 67 -84 67 -9 0 -16 5 -16 10 0 6 9 10 20 10 30
0 24 27 -7 34 -16 3 -311 10 -658 16 -346 5 -794 13 -995 18 -341 7 -353 7
-180 12 102 3 -37 5 -308 5 -271 0 -502 -3 -512 -7z"/>
<path d="M6510 9840 c-11 -11 -24 -20 -29 -20 -5 0 -13 -9 -16 -20 -3 -11 -13
-20 -21 -20 -8 0 -14 -7 -14 -15 0 -8 -4 -15 -9 -15 -12 0 -121 -108 -121
-120 0 -5 -5 -10 -11 -10 -14 0 -79 -64 -79 -78 0 -5 -9 -12 -20 -15 -11 -3
-20 -12 -20 -21 0 -9 -5 -16 -11 -16 -14 0 -79 -64 -79 -78 0 -5 -9 -12 -20
-15 -11 -3 -20 -12 -20 -21 0 -9 -4 -16 -9 -16 -5 0 -25 -16 -45 -36 -20 -20
-36 -40 -36 -45 0 -5 -7 -9 -15 -9 -8 0 -15 -7 -15 -15 0 -9 -8 -19 -17 -22
-43 -16 -42 -9 -43 -708 l0 -671 33 -19 c29 -18 49 -20 209 -18 147 1 180 4
194 17 10 10 33 16 65 16 35 0 51 4 55 15 4 8 13 15 22 15 19 0 87 68 96 97 4
12 13 27 21 33 13 11 15 93 15 566 l0 553 293 4 c224 2 301 6 330 17 20 8 37
18 37 22 0 5 4 8 9 8 6 0 32 22 58 49 217 224 315 321 322 321 10 0 51 48 51
60 0 6 5 10 11 10 7 0 25 14 41 30 15 17 32 30 36 30 4 0 22 18 40 40 24 30
32 48 32 80 0 34 -4 42 -26 50 -15 6 -268 10 -650 10 -611 0 -624 0 -644 -20z"/>
<path d="M4605 6873 c-47 -13 -45 29 -45 -973 0 -861 2 -950 17 -981 19 -41
42 -64 70 -73 12 -4 27 -13 33 -21 10 -12 40 -15 134 -15 115 0 124 1 144 23
l22 23 0 960 0 960 -24 21 c-13 12 -28 27 -32 35 -21 32 -60 41 -179 44 -66 2
-129 0 -140 -3z"/>
<path d="M5134 6866 c-39 -17 -44 -31 -44 -120 0 -58 4 -79 20 -99 11 -14 20
-29 20 -34 0 -12 53 -63 66 -63 5 0 20 -9 34 -20 24 -19 45 -20 570 -20 498
-1 543 -2 523 -17 -13 -8 -23 -20 -23 -25 0 -5 -21 -31 -47 -57 -27 -26 -70
-74 -98 -107 -27 -32 -65 -72 -82 -89 -18 -16 -33 -36 -33 -42 0 -7 -7 -13
-15 -13 -8 0 -15 -6 -15 -14 0 -7 -20 -30 -45 -52 -25 -21 -45 -42 -45 -47 0
-6 -13 -23 -30 -39 -16 -15 -30 -30 -30 -32 0 -4 -67 -77 -167 -183 -18 -19
-33 -39 -33 -44 0 -5 -7 -9 -15 -9 -8 0 -15 -5 -15 -11 0 -6 -24 -35 -52 -63
-54 -54 -98 -103 -98 -110 0 -2 -38 -44 -85 -92 -46 -49 -85 -95 -85 -101 0
-7 -7 -13 -15 -13 -8 0 -15 -4 -15 -9 0 -5 -34 -44 -75 -87 -48 -50 -75 -86
-75 -100 0 -12 -5 -24 -11 -26 -8 -3 -12 -46 -14 -128 -1 -118 0 -127 23 -157
l24 -33 849 0 848 0 37 36 36 37 -4 89 c-2 71 -7 92 -20 102 -10 7 -18 17 -18
22 0 11 -45 54 -55 54 -4 0 -14 8 -21 18 -11 16 -52 17 -568 20 l-556 2 17 28
c10 15 32 41 48 59 17 17 55 59 85 92 30 34 85 94 123 133 37 39 67 74 67 79
0 4 27 36 59 71 32 34 72 78 87 96 16 18 65 70 109 116 44 46 96 103 115 126
19 23 43 51 53 61 9 10 17 21 17 23 0 2 26 31 58 64 123 129 142 150 142 161
0 6 7 11 15 11 9 0 19 8 22 18 4 9 32 42 62 73 100 101 121 127 121 152 0 13
6 30 14 36 21 18 23 229 1 237 -8 3 -15 12 -15 20 0 31 -76 34 -895 34 -666
-1 -826 -3 -851 -14z"/>
<path d="M7085 6873 c-16 -3 -35 -12 -42 -21 -10 -14 -12 -223 -13 -999 0
-937 1 -982 18 -995 10 -7 21 -21 25 -30 6 -16 22 -18 133 -18 111 0 129 2
151 20 14 11 32 20 39 20 8 0 14 6 14 13 0 7 9 18 20 25 14 8 20 23 20 46 0
21 6 36 15 40 13 5 15 49 15 316 0 202 -4 318 -11 331 -26 49 -26 49 537 49
l524 0 30 27 c31 27 60 76 60 100 0 7 9 22 20 33 11 11 20 29 20 39 0 10 7 21
15 25 25 9 20 88 -8 114 l-23 22 -585 0 -584 0 0 212 c0 117 -3 225 -8 241
l-7 27 677 0 c657 0 679 1 703 20 14 11 30 20 35 20 15 1 47 31 73 67 19 27
22 44 22 125 -1 150 119 133 -943 134 -502 1 -925 -1 -942 -3z"/>
<path d="M9146 6873 c-39 -11 -61 -42 -60 -86 1 -23 2 -327 2 -675 1 -560 3
-633 17 -638 11 -5 15 -22 15 -74 0 -51 4 -69 15 -74 8 -3 15 -15 15 -26 0
-26 68 -160 81 -160 5 0 13 -8 16 -17 9 -23 138 -153 152 -153 6 0 11 -3 11
-7 0 -5 15 -17 32 -28 18 -11 44 -28 58 -37 14 -9 31 -17 38 -17 7 -1 20 -7
28 -15 8 -8 40 -17 71 -21 32 -3 70 -13 85 -21 38 -20 805 -21 846 0 15 7 49
16 75 20 27 3 61 12 75 20 15 7 41 20 57 27 17 8 32 16 35 19 3 3 17 11 32 19
15 8 44 29 64 48 20 18 40 33 44 33 9 0 50 44 50 54 0 5 8 16 18 25 29 26 72
87 72 102 0 8 9 21 20 29 11 8 20 26 20 41 0 15 7 29 15 33 10 3 15 19 15 42
0 22 7 46 18 57 16 18 17 69 20 724 l3 706 -22 23 c-22 23 -28 24 -161 24
-114 0 -143 -3 -166 -17 -49 -32 -79 -74 -86 -121 -3 -25 -6 -318 -6 -653 0
-394 -4 -610 -10 -614 -5 -3 -10 -16 -10 -29 0 -12 -7 -31 -15 -42 -8 -10 -15
-25 -15 -33 0 -8 -9 -23 -20 -35 -12 -12 -31 -31 -43 -44 -33 -34 -95 -72
-117 -72 -11 0 -20 -4 -20 -10 0 -6 -123 -10 -349 -10 -223 0 -352 4 -356 10
-3 6 -17 10 -29 10 -13 0 -29 7 -36 15 -7 8 -19 15 -26 15 -8 0 -22 9 -31 20
-10 11 -23 20 -30 20 -7 0 -13 7 -13 15 0 9 -7 18 -15 21 -8 4 -15 11 -15 18
0 6 -9 17 -20 24 -11 7 -20 22 -20 35 0 13 -6 29 -12 35 -10 10 -14 159 -18
645 -3 348 -9 641 -12 652 -4 11 -9 32 -13 48 -3 15 -12 27 -20 27 -8 0 -15 6
-15 14 0 8 -14 25 -32 38 -29 20 -45 23 -158 25 -69 1 -134 -1 -144 -4z"/>
<path d="M833 6841 l-23 -29 0 -965 c0 -531 3 -972 6 -981 3 -9 11 -16 18 -16
6 0 17 -9 24 -20 11 -18 23 -20 132 -20 94 0 122 3 126 14 3 8 21 17 40 20 19
4 34 10 34 15 0 4 8 16 18 27 39 43 42 78 42 437 l0 347 535 0 c294 0 535 4
535 8 0 4 14 16 30 25 23 14 30 25 30 48 0 16 4 29 10 29 11 0 80 140 80 163
0 9 -10 31 -22 51 l-23 35 -587 1 -588 0 0 240 0 240 674 0 c658 0 674 0 699
20 14 11 31 20 39 20 18 0 68 65 68 89 0 11 5 23 10 26 6 3 10 38 10 77 0 55
-4 76 -21 99 l-20 29 -927 -1 -927 0 -22 -28z"/>
<path d="M3112 6858 c-7 -7 -12 -16 -12 -20 0 -5 -9 -18 -20 -30 -11 -12 -20
-32 -20 -44 0 -12 -4 -24 -10 -26 -5 -1 -18 -26 -28 -54 -9 -28 -25 -63 -35
-77 -9 -14 -17 -35 -17 -46 0 -11 -4 -22 -9 -25 -5 -4 -19 -27 -31 -54 -11
-26 -28 -60 -35 -75 -8 -16 -15 -35 -15 -43 0 -8 -9 -24 -20 -36 -11 -12 -20
-32 -20 -44 0 -12 -6 -24 -12 -27 -7 -2 -19 -24 -26 -48 -7 -23 -22 -55 -33
-70 -10 -15 -19 -35 -19 -44 0 -9 -9 -28 -20 -42 -11 -14 -20 -34 -20 -44 0
-11 -4 -19 -8 -19 -8 0 -42 -69 -42 -86 0 -5 -9 -20 -20 -34 -11 -14 -20 -37
-20 -52 0 -16 -5 -28 -10 -28 -6 0 -13 -8 -17 -17 -7 -23 -42 -103 -54 -125
-5 -10 -9 -25 -9 -33 0 -8 -9 -24 -20 -35 -11 -11 -20 -27 -20 -36 0 -8 -7
-22 -15 -30 -8 -9 -15 -24 -15 -34 0 -19 -32 -85 -51 -105 -5 -5 -9 -19 -9
-31 0 -12 -7 -24 -15 -28 -9 -3 -15 -18 -15 -35 0 -20 -7 -34 -20 -41 -11 -6
-20 -18 -20 -27 0 -20 -67 -160 -80 -168 -6 -4 -10 -16 -10 -27 0 -11 -7 -26
-17 -33 -10 -8 -18 -32 -21 -68 -4 -50 -2 -58 21 -81 25 -25 31 -26 145 -26
89 0 122 3 131 14 6 7 24 16 39 20 15 3 41 19 58 34 33 31 94 135 94 161 0 9
9 22 20 29 13 8 20 23 20 42 0 17 4 30 9 30 5 0 13 10 17 23 3 12 16 41 26 65
l20 42 514 0 c507 0 514 0 514 -20 0 -11 4 -20 9 -20 5 0 13 -14 16 -32 4 -17
14 -38 21 -46 8 -7 14 -22 14 -33 0 -11 7 -22 15 -25 8 -4 15 -18 15 -33 0
-15 9 -33 20 -41 11 -8 20 -19 20 -25 0 -19 39 -88 66 -116 15 -16 39 -31 55
-34 15 -4 33 -13 40 -21 9 -11 40 -14 135 -14 116 0 124 1 138 22 21 30 22
144 2 155 -8 4 -17 20 -20 36 -2 15 -12 34 -20 43 -9 8 -16 23 -16 33 0 9 -9
27 -21 39 -11 12 -17 27 -14 32 4 6 -1 13 -9 16 -9 4 -16 18 -16 34 0 16 -7
30 -15 34 -8 3 -15 14 -15 25 0 25 -20 71 -32 71 -4 0 -8 7 -8 15 0 8 -4 23
-9 33 -21 38 -51 109 -51 119 0 6 -7 16 -15 23 -8 7 -15 21 -15 30 0 10 -4 20
-8 22 -12 5 -52 95 -52 118 0 11 -7 23 -15 26 -8 4 -15 15 -15 25 0 10 -9 28
-20 39 -11 11 -20 26 -20 33 0 8 -13 41 -30 75 -16 34 -30 69 -30 77 0 9 -7
18 -15 21 -8 4 -15 16 -15 29 0 12 -9 30 -20 40 -11 10 -20 26 -20 35 0 17
-20 69 -39 100 -5 8 -15 30 -21 48 -7 17 -16 32 -21 32 -5 0 -9 8 -9 18 0 9
-15 46 -33 82 -17 36 -33 72 -35 80 -2 8 -8 17 -13 18 -5 2 -9 15 -9 28 0 13
-9 29 -20 36 -11 7 -20 20 -20 30 0 9 -13 46 -30 81 -16 36 -30 70 -30 76 0 7
-7 14 -15 17 -8 4 -15 15 -15 26 0 10 -12 35 -27 54 l-28 34 -185 0 c-131 0
-190 -4 -198 -12z m208 -507 c0 -11 7 -26 15 -35 8 -8 15 -19 15 -24 0 -6 14
-36 30 -67 17 -31 30 -61 30 -67 0 -5 9 -21 20 -35 11 -14 20 -33 20 -41 0 -9
6 -23 13 -31 7 -9 19 -35 27 -58 7 -23 21 -51 32 -62 10 -11 18 -31 18 -44 0
-14 7 -30 15 -37 8 -7 15 -20 15 -30 0 -9 9 -29 20 -43 11 -14 20 -35 20 -46
0 -12 4 -21 9 -21 5 0 11 -13 13 -30 l4 -29 -328 -3 c-333 -3 -353 -1 -313 32
9 7 14 18 11 25 -2 6 5 22 15 36 10 13 19 34 19 47 0 12 9 31 20 42 11 11 20
28 20 39 0 10 7 24 15 31 8 7 15 20 15 30 0 20 40 103 53 108 4 2 7 12 7 22 0
9 7 23 15 30 8 7 15 18 15 26 0 7 22 57 50 111 27 54 50 108 50 121 0 12 5 22
10 22 6 0 10 -9 10 -19z"/>
<path d="M11341 6847 c-13 -15 -21 -35 -20 -53 1 -16 2 -456 3 -979 l1 -950
24 -27 25 -28 873 0 874 0 35 28 34 27 0 100 0 101 -38 39 c-81 86 -26 79
-747 83 l-640 3 -3 767 c-2 651 -5 770 -17 789 -8 12 -15 28 -15 35 0 7 -19
30 -42 50 l-43 38 -141 0 c-135 0 -141 -1 -163 -23z"/>
<path d="M13335 6837 c-20 -31 -20 -49 -24 -997 l-3 -965 35 -33 34 -33 859 3
859 3 36 23 c20 12 42 35 49 51 21 51 5 191 -22 191 -4 0 -8 6 -8 13 0 15 -30
43 -70 67 -26 16 -407 26 -1057 29 l-263 1 -1 608 c-1 659 -8 905 -30 967 -9
25 -29 51 -57 72 l-44 33 -136 0 -137 0 -20 -33z"/>
</g>
</svg>
