<svg xmlns="http://www.w3.org/2000/svg" width="1024" height="312" viewBox="0 0 1024 312" version="1.1">
	<path d="M 222.667 45.667 C 222.300 46.033, 222 52.982, 222 61.108 C 222 69.879, 221.594 76.133, 221 76.500 C 219.877 77.194, 219.600 104.751, 220.663 110.064 C 221.063 112.066, 223.075 115.128, 225.744 117.797 C 229.344 121.396, 230.047 122.677, 229.538 124.703 C 229.194 126.074, 229.437 127.822, 230.079 128.596 C 230.973 129.672, 230.940 130.368, 229.936 131.577 C 228.846 132.890, 228.928 133.710, 230.424 136.489 C 231.412 138.323, 233.007 140.030, 233.968 140.281 C 235.473 140.675, 235.784 142.417, 236.214 152.871 C 236.675 164.062, 236.938 165.365, 239.607 169.674 C 244.011 176.785, 249.353 179.233, 259.574 178.823 C 266.393 178.550, 268.295 178.072, 271.805 175.749 C 274.090 174.236, 276.982 171.086, 278.230 168.749 C 280.487 164.525, 280.503 164.190, 281 112.268 L 281.500 60.036 284.702 56.835 C 287.431 54.107, 288.760 53.582, 293.702 53.276 C 300.521 52.853, 303.509 54.147, 306.720 58.912 C 308.964 62.242, 309 62.759, 309 91.425 C 309 114.001, 308.701 120.999, 307.671 122.527 C 306.939 123.612, 306.417 126.300, 306.509 128.500 C 306.643 131.692, 306.125 133.015, 303.947 135.050 C 301.464 137.369, 301.150 138.487, 300.484 147.378 C 299.988 153.984, 300.115 157.958, 300.875 159.625 C 301.494 160.983, 302 165.849, 302 170.439 C 302 178.277, 302.136 178.814, 304.250 179.284 C 306.459 179.775, 322.989 179.345, 323.553 178.781 C 323.711 178.623, 324.166 169.398, 324.564 158.282 L 325.287 138.071 322.306 135.285 C 319.814 132.957, 319.375 131.855, 319.634 128.569 C 319.805 126.407, 319.394 123.975, 318.722 123.165 C 317.833 122.094, 317.417 113.256, 317.194 90.697 C 316.862 57.056, 316.652 55.725, 310.834 50.298 C 302.850 42.851, 285.502 43.296, 278.298 51.132 C 273.322 56.544, 273.260 57.195, 272.491 112 C 272.084 140.933, 271.352 164.290, 270.820 165.304 C 266.852 172.854, 250.135 172.726, 246.061 165.113 C 245.474 164.017, 244.955 158.480, 244.908 152.810 C 244.799 139.617, 244.755 140, 246.402 140 C 248.697 140, 252.027 133.919, 250.893 131.800 C 250.275 130.645, 250.276 129.353, 250.895 128.196 C 251.485 127.094, 251.505 125.830, 250.946 124.946 C 249.429 122.549, 249.862 121.605, 253.587 119.192 C 259.741 115.205, 260.953 110.888, 260.978 92.872 C 260.996 80.182, 260.718 77.011, 259.500 76 C 258.290 74.996, 258 71.882, 258 59.878 L 258 45 240.667 45 C 231.133 45, 223.033 45.300, 222.667 45.667 M 226.667 49.667 C 226.300 50.033, 226 55.603, 226 62.044 C 226 70.825, 226.348 74.044, 227.391 74.909 C 228.320 75.680, 232.882 75.970, 241.141 75.782 L 253.500 75.500 253.779 62.250 L 254.058 49 240.696 49 C 233.346 49, 227.033 49.300, 226.667 49.667 M 230 63.500 C 230 67.072, 230.050 67.117, 233.750 66.810 C 237.181 66.526, 237.500 66.245, 237.500 63.500 C 237.500 60.755, 237.181 60.474, 233.750 60.190 C 230.050 59.883, 230 59.928, 230 63.500 M 243 63.440 C 243 66.936, 243.073 67, 247.063 67 C 251.045 67, 251.120 66.935, 250.813 63.750 C 250.527 60.783, 250.174 60.473, 246.750 60.190 C 243.061 59.884, 243 59.937, 243 63.440 M 29.241 114.750 L 29.500 164.500 41.500 164.500 L 53.500 164.500 53.759 114.750 L 54.019 65 41.500 65 L 28.981 65 29.241 114.750 M 78.458 66.250 C 78.195 66.938, 78.096 89.325, 78.240 116 L 78.500 164.500 90.500 164.500 L 102.500 164.500 102.766 137.172 C 102.913 122.077, 103.425 109.991, 103.908 110.172 C 104.696 110.467, 140.647 153.745, 146.782 161.783 L 149.288 165.067 159.394 164.783 L 169.500 164.500 169.759 114.719 L 170.019 64.938 157.759 65.219 L 145.500 65.500 145 92.904 L 144.500 120.308 122 92.712 L 99.500 65.116 89.219 65.058 C 81.871 65.017, 78.801 65.357, 78.458 66.250 M 366.667 65.667 C 366.300 66.033, 366 88.028, 366 114.544 C 366 154.582, 366.237 162.952, 367.396 163.914 C 368.310 164.672, 372.370 164.973, 379.146 164.786 L 389.500 164.500 389.767 138.750 C 389.914 124.588, 390.364 113.013, 390.767 113.028 C 391.170 113.043, 395.294 119.456, 399.932 127.278 C 404.569 135.100, 410.318 144.560, 412.707 148.299 L 417.050 155.098 422.754 154.799 L 428.459 154.500 440.980 133.278 C 447.866 121.606, 453.725 112.043, 454 112.028 C 454.275 112.012, 454.539 115.937, 454.586 120.750 C 454.633 125.562, 454.746 137.488, 454.836 147.250 L 455 165 466.481 165 C 477.559 165, 477.981 164.921, 478.508 162.750 C 478.809 161.512, 478.930 139.125, 478.777 113 L 478.500 65.500 467.944 65.218 L 457.387 64.936 441.030 92.718 C 432.033 107.998, 424.170 121.060, 423.557 121.744 C 422.707 122.691, 418.284 116.089, 404.971 93.997 L 387.500 65.006 377.417 65.003 C 371.871 65.001, 367.033 65.300, 366.667 65.667 M 520.015 95.250 C 512.637 111.888, 502.852 133.805, 498.272 143.956 C 493.691 154.107, 490.173 163.008, 490.452 163.737 C 490.845 164.759, 493.758 164.998, 503.194 164.781 L 515.428 164.500 519.624 154.500 L 523.821 144.500 545.564 144.500 L 567.307 144.500 571.474 154.500 L 575.641 164.500 587.673 164.780 C 596.522 164.985, 599.981 164.721, 600.744 163.780 C 601.505 162.843, 596.456 150.577, 581.902 118 C 570.968 93.525, 561.123 71.588, 560.024 69.250 L 558.026 65 545.729 65 L 533.431 65 520.015 95.250 M 613.241 114.750 L 613.500 164.500 625.500 164.500 L 637.500 164.500 637.779 151.250 L 638.058 138 647.409 138 L 656.761 138 666.093 151.528 L 675.425 165.057 687.950 164.778 C 698.226 164.550, 700.528 164.226, 700.767 162.977 C 700.928 162.139, 696.575 155.164, 691.093 147.477 L 681.127 133.500 683.314 131.738 C 684.516 130.769, 687.099 128.681, 689.052 127.098 C 691.006 125.514, 694.155 121.357, 696.050 117.860 C 699.330 111.807, 699.495 111.017, 699.478 101.500 C 699.464 93.402, 699.050 90.603, 697.301 86.783 C 694.460 80.577, 687.255 72.981, 681.468 70.091 C 672.346 65.535, 668.149 65.024, 639.741 65.012 L 612.981 65 613.241 114.750 M 718.618 66.552 C 718.278 67.438, 718 89.447, 718 115.459 C 718 154.668, 718.238 162.953, 719.393 163.911 C 720.315 164.677, 724.626 164.972, 732.143 164.784 L 743.500 164.500 744 151.957 L 744.500 139.415 749.500 133.720 C 752.250 130.588, 754.801 128.020, 755.170 128.013 C 755.538 128.006, 762.648 136.338, 770.969 146.528 L 786.099 165.056 799.717 164.778 C 808.289 164.603, 813.468 164.102, 813.692 163.427 C 813.888 162.837, 804.817 150.687, 793.533 136.427 C 782.250 122.167, 773.023 110.050, 773.030 109.500 C 773.037 108.950, 781.582 99.329, 792.021 88.119 C 802.459 76.910, 811 67.123, 811 66.369 C 811 65.278, 808.282 65, 797.635 65 L 784.269 65 764.385 86.100 L 744.500 107.199 744 86.350 L 743.500 65.500 731.368 65.220 C 720.967 64.980, 719.149 65.170, 718.618 66.552 M 825.458 66.250 C 825.195 66.938, 825.096 89.325, 825.240 116 L 825.500 164.500 863.383 164.762 C 888.392 164.935, 901.689 164.673, 902.512 163.990 C 903.839 162.888, 904.543 148.579, 903.415 145.639 C 902.855 144.179, 899.966 144, 876.960 144 C 852.196 144, 851.109 143.920, 850.513 142.042 C 849.834 139.902, 850.016 127.261, 850.755 125.250 C 851.103 124.302, 856.500 124, 873.088 124 L 894.962 124 895.530 121.738 C 895.842 120.494, 895.963 116.107, 895.799 111.988 L 895.500 104.500 873.547 104.230 C 859.275 104.054, 851.361 103.584, 850.930 102.887 C 850.565 102.297, 850.319 98.368, 850.383 94.157 L 850.500 86.500 874.919 86.232 C 890.885 86.057, 899.799 85.581, 900.669 84.859 C 902.050 83.714, 902.603 69.736, 901.393 66.582 C 900.854 65.178, 896.565 65, 863.362 65 C 834.344 65, 825.830 65.281, 825.458 66.250 M 911.427 66.329 C 911.147 67.060, 911.048 71.673, 911.209 76.579 L 911.500 85.500 926.750 85.776 L 942 86.052 942 124.326 C 942 152.761, 942.308 162.908, 943.200 163.800 C 944.846 165.446, 965.154 165.446, 966.800 163.800 C 967.692 162.908, 968 152.756, 968 124.300 L 968 86 983 86 L 998 86 998 75.500 L 998 65 954.969 65 C 920.099 65, 911.840 65.252, 911.427 66.329 M 638.478 87.196 C 638.183 87.966, 638.067 94.875, 638.220 102.548 L 638.500 116.500 650.500 116.484 C 660.599 116.470, 663.119 116.145, 666.408 114.433 C 676.387 109.240, 676.618 93.596, 666.794 88.332 C 662.338 85.944, 639.313 85.020, 638.478 87.196 M 544.688 94.750 C 543.781 96.331, 533 122.693, 533 123.329 C 533 123.698, 538.625 124, 545.500 124 C 553.563 124, 558 123.627, 558 122.950 C 558 121.196, 546.550 94.012, 545.809 94.006 C 545.429 94.002, 544.924 94.338, 544.688 94.750 M 305 169 L 305 177 313 177 L 321 177 321 169 L 321 161 313 161 L 305 161 305 169 M 311.092 163.389 C 310.403 164.220, 310.016 166.917, 310.192 169.672 C 310.458 173.839, 310.815 174.545, 312.800 174.826 C 315.015 175.140, 315.088 174.922, 314.800 168.905 C 314.496 162.566, 313.278 160.755, 311.092 163.389 M 118.443 222.287 C 118.172 222.994, 118.074 231.207, 118.225 240.537 L 118.500 257.500 123.750 257.802 L 129 258.105 129 249.552 C 129 244.849, 129.338 241.008, 129.750 241.017 C 130.162 241.026, 132.211 244.204, 134.302 248.078 C 137.701 254.376, 138.388 255.090, 140.782 254.811 C 142.894 254.566, 144.257 253.126, 147.232 248 C 149.307 244.425, 151.454 241.350, 152.002 241.167 C 152.614 240.962, 153 244.151, 153 249.417 L 153 258 158.023 258 L 163.045 258 162.773 239.750 L 162.500 221.500 157.529 221.500 L 152.558 221.500 147.256 230.500 C 144.341 235.450, 141.627 239.612, 141.227 239.749 C 140.827 239.886, 138.117 235.723, 135.204 230.499 L 129.909 221 124.423 221 C 120.873 221, 118.763 221.454, 118.443 222.287 M 177.524 222.545 C 171.777 224.723, 171.379 225.428, 173.578 229.536 C 175.221 232.606, 175.863 233.032, 178 232.468 C 184.451 230.767, 190.114 230.793, 192.037 232.533 C 194.882 235.108, 193.563 236, 186.909 236 C 176.244 236, 171 239.816, 171 247.576 C 171 252.679, 174.084 256.374, 179.627 257.914 C 184.719 259.327, 186.400 259.278, 190.427 257.595 C 192.589 256.692, 194.135 256.535, 194.755 257.155 C 195.286 257.686, 197.921 257.981, 200.610 257.810 L 205.500 257.500 205.449 244.255 C 205.393 229.836, 204.863 228.226, 198.637 223.579 C 195.075 220.919, 183.334 220.344, 177.524 222.545 M 215.667 221.667 C 215.300 222.033, 215 230.358, 215 240.167 L 215 258 220.471 258 L 225.942 258 226.221 244.750 L 226.500 231.500 235.500 231 L 244.500 230.500 244.581 227 C 244.714 221.239, 244.116 221, 229.544 221 C 222.278 221, 216.033 221.300, 215.667 221.667 M 254.177 222.686 C 248.984 224.523, 248.336 225.815, 250.503 230.007 C 251.837 232.586, 252.566 233.064, 254.326 232.514 C 259.026 231.043, 266.998 230.754, 268.498 231.999 C 271.730 234.681, 270.168 235.773, 262.551 236.158 C 254.328 236.573, 250.581 238.474, 248.132 243.473 C 247.062 245.657, 247.005 247.074, 247.873 249.970 C 249.306 254.752, 251.419 256.585, 257.318 258.163 C 261.426 259.261, 262.748 259.215, 266.570 257.841 C 269.022 256.959, 271.274 256.634, 271.573 257.119 C 271.873 257.603, 274.341 258, 277.059 258 L 282 258 282 244.648 C 282 232.431, 281.807 231.007, 279.730 227.898 C 278.482 226.029, 275.894 223.713, 273.980 222.752 C 269.668 220.585, 260.208 220.554, 254.177 222.686 M 294 222.168 C 289.093 223.554, 288.617 224.309, 290.004 228.511 C 291.143 231.962, 291.429 232.163, 294.361 231.563 C 302.242 229.951, 305.545 229.877, 307.403 231.270 C 310.188 233.358, 308.499 235, 303.563 235 C 298.727 235, 296.673 236.669, 297.173 240.195 C 297.453 242.166, 298.225 242.575, 302.500 243.018 C 305.250 243.303, 308.063 243.892, 308.750 244.327 C 310.840 245.650, 310.151 247.924, 307.454 248.601 C 304.759 249.277, 295.982 248.630, 292.320 247.485 C 290.427 246.893, 289.977 247.345, 288.909 250.908 C 288.233 253.166, 287.930 255.263, 288.236 255.570 C 288.543 255.876, 291.202 256.768, 294.147 257.551 C 304.576 260.327, 313.315 258.885, 318.703 253.497 C 322.634 249.566, 323.017 245.562, 319.846 241.531 C 317.794 238.923, 317.771 238.658, 319.346 235.992 C 322.652 230.396, 320.435 225.333, 313.390 222.390 C 309.614 220.812, 299.225 220.693, 294 222.168 M 330.667 221.667 C 330.300 222.033, 330 230.358, 330 240.167 L 330 258 335.303 258 L 340.605 258 347.890 249 C 351.897 244.050, 355.473 239.999, 355.838 239.998 C 356.202 239.998, 356.500 243.935, 356.500 248.748 L 356.500 257.500 362.273 257.801 L 368.046 258.101 367.773 239.801 L 367.500 221.500 363.132 221.187 C 357.995 220.818, 356.870 221.688, 348.268 232.670 C 345.110 236.701, 342.145 240, 341.678 240 C 341.212 240, 340.959 236.278, 341.116 231.730 C 341.273 227.181, 341.060 222.906, 340.642 222.230 C 339.852 220.951, 331.835 220.499, 330.667 221.667 M 378.667 221.667 C 378.300 222.033, 378 230.381, 378 240.217 L 378 258.100 383.750 257.800 L 389.500 257.500 389.798 251.250 L 390.095 245 396.500 245 L 402.905 245 403.202 251.250 L 403.500 257.500 409.273 257.801 L 415.046 258.101 414.773 239.801 L 414.500 221.500 410.176 221.189 C 404.188 220.758, 403 222.071, 403 229.122 L 403 235 396.500 235 L 390 235 390 229.200 C 390 226.010, 389.460 222.860, 388.800 222.200 C 387.535 220.935, 379.805 220.528, 378.667 221.667 M 450.992 222.327 C 449.063 222.972, 446.671 223.985, 445.676 224.577 C 443.936 225.613, 443.935 225.796, 445.654 229.401 C 447.212 232.668, 447.766 233.063, 449.971 232.479 C 456.467 230.758, 462.109 230.789, 464.060 232.554 C 467.194 235.390, 466.381 236, 459.468 236 C 448.362 236, 443 239.687, 443 247.323 C 443 255.632, 453.689 261.246, 462.501 257.564 C 465.170 256.449, 466.560 256.287, 467.024 257.038 C 467.404 257.653, 469.815 257.988, 472.597 257.811 L 477.500 257.500 477.782 245.717 C 478.139 230.802, 476.596 226.435, 469.806 223.148 C 464.832 220.740, 456.787 220.389, 450.992 222.327 M 487.667 221.667 C 487.300 222.033, 487 230.381, 487 240.217 L 487 258.100 492.750 257.800 L 498.500 257.500 498.798 251.250 C 499.203 242.744, 501.257 242.803, 507.463 251.500 L 512.101 258 518.551 258 C 522.098 258, 525 257.630, 525 257.177 C 525 256.725, 522.270 252.627, 518.933 248.072 C 515.597 243.517, 513.097 239.189, 513.379 238.454 C 513.661 237.719, 516.225 233.910, 519.077 229.990 C 524.965 221.894, 524.748 220.720, 517.451 221.190 C 512.761 221.491, 512.490 221.686, 507.999 228 C 505.131 232.032, 502.545 234.621, 501.188 234.820 C 499.130 235.120, 499 234.755, 499 228.677 C 499 223.706, 498.635 222.074, 497.418 221.607 C 495.294 220.792, 488.500 220.833, 487.667 221.667 M 537.204 223.128 C 531.085 226.157, 527.753 230.937, 527.212 237.460 C 526.626 244.518, 528.294 249.130, 532.954 253.340 C 540.550 260.202, 553.092 260.453, 560.126 253.882 C 563.881 250.375, 563.563 248.488, 558.755 245.747 L 555.010 243.612 552.977 245.794 C 550.164 248.813, 546.769 249.449, 543.229 247.618 C 539.759 245.824, 539 244.275, 539 238.991 C 539 231.994, 546.711 228.625, 552.429 233.123 C 555.072 235.202, 555.210 235.209, 559.064 233.471 C 561.353 232.439, 563 231.001, 563 230.035 C 563 227.914, 558.337 223.444, 554.685 222.064 C 550.006 220.296, 541.933 220.787, 537.204 223.128 M 577.384 222.913 C 566.345 227.926, 563.413 242.917, 571.680 252.068 C 577.695 258.726, 589.793 260.744, 598.060 256.469 C 603.048 253.890, 603.423 252.504, 600.131 248.829 L 597.149 245.500 594.170 247.250 C 590.125 249.626, 584.873 249.475, 581.582 246.886 C 580.104 245.723, 579.181 244.486, 579.530 244.136 C 579.880 243.786, 585.641 243.464, 592.333 243.420 L 604.500 243.340 604.820 239.515 C 605.271 234.115, 604.424 231.553, 600.841 227.471 C 595.156 220.997, 585.665 219.153, 577.384 222.913 M 621.204 223.128 C 614.489 226.452, 611.618 230.978, 611.204 238.890 C 610.898 244.733, 611.175 245.983, 613.592 249.658 C 620.200 259.703, 635.573 261.872, 644.048 253.955 C 648.027 250.238, 647.767 248.432, 642.894 245.946 L 638.788 243.851 636.866 245.913 C 632.536 250.562, 625.919 249.444, 623.500 243.655 C 619.771 234.729, 628.957 227.246, 636.429 233.123 C 639.072 235.202, 639.210 235.209, 643.064 233.471 C 645.353 232.439, 647 231.001, 647 230.035 C 647 228.030, 642.554 223.825, 638.703 222.189 C 634.240 220.292, 626.044 220.732, 621.204 223.128 M 663.145 222.070 C 655.455 225.150, 651 231.730, 651 240.010 C 651 248.262, 655.646 254.553, 663.890 257.461 C 669.149 259.317, 671.980 259.386, 677.312 257.788 C 681.613 256.500, 688.446 250.531, 687.456 248.929 C 687.131 248.402, 685.047 247.044, 682.826 245.911 L 678.788 243.851 676.866 245.913 C 674.160 248.818, 670.725 249.426, 667.229 247.618 C 663.847 245.869, 663 244.254, 663 239.553 C 663 231.901, 670.796 228.340, 676.607 233.339 L 679.326 235.677 683.655 233.258 C 687.119 231.321, 687.804 230.505, 687.084 229.169 C 685.663 226.534, 681.756 223.230, 678.685 222.067 C 675.269 220.772, 666.380 220.774, 663.145 222.070 M 689.549 221.920 C 689.236 222.427, 692.164 230.189, 696.055 239.170 C 705.025 259.874, 704.664 258.519, 701.729 260.442 C 699.820 261.693, 698.666 261.824, 696.570 261.027 C 692.597 259.516, 692.255 259.660, 690.365 263.643 C 688.664 267.228, 688.673 267.317, 690.929 269.143 C 692.558 270.463, 694.853 270.999, 698.861 270.996 C 705.388 270.992, 710.100 268.641, 712.367 264.257 C 716.615 256.043, 729.986 223.407, 729.560 222.295 C 728.913 220.610, 720.580 220.574, 719.260 222.250 C 718.718 222.938, 716.525 227.887, 714.387 233.249 C 712.249 238.610, 710.234 242.998, 709.908 242.999 C 709.582 242.999, 708.053 239.738, 706.509 235.750 C 704.966 231.762, 702.861 226.813, 701.831 224.750 C 700.048 221.178, 699.725 221, 695.039 221 C 692.332 221, 689.862 221.414, 689.549 221.920 M 738.524 222.545 C 732.777 224.723, 732.379 225.428, 734.578 229.536 C 736.221 232.606, 736.863 233.032, 739 232.468 C 747.731 230.166, 754 231.066, 754 234.622 C 754 235.640, 752.425 236, 747.968 236 C 737.523 236, 731.800 240.020, 731.800 247.356 C 731.800 252.254, 733.586 254.909, 738.331 257.063 C 743.332 259.334, 746.917 259.479, 751.427 257.595 C 753.589 256.692, 755.135 256.535, 755.755 257.155 C 756.286 257.686, 758.921 257.981, 761.610 257.810 L 766.500 257.500 766.449 244.255 C 766.393 229.836, 765.863 228.226, 759.637 223.579 C 756.075 220.919, 744.334 220.344, 738.524 222.545 M 776.667 221.667 C 776.300 222.033, 776 233.283, 776 246.667 L 776 271 781.456 271 L 786.912 271 787.206 263.750 C 787.444 257.886, 787.787 256.576, 789 256.896 C 789.825 257.113, 792.075 257.731, 794 258.268 C 798.489 259.522, 804.811 257.871, 808.990 254.355 C 818.959 245.967, 817.133 228.631, 805.698 223.096 C 800.896 220.771, 794.456 220.379, 790.520 222.173 C 788.551 223.070, 787.670 223.070, 786.773 222.173 C 785.528 220.928, 777.792 220.541, 776.667 221.667 M 832.870 221.916 C 828.438 223.343, 824.094 227.175, 821.997 231.506 C 816.938 241.958, 822.378 254.004, 833.899 257.862 C 838.487 259.398, 841.915 259.294, 847.110 257.461 C 855.252 254.588, 860.020 248.038, 859.978 239.782 C 859.924 229.171, 852.579 221.781, 841.633 221.324 C 838.260 221.184, 834.316 221.450, 832.870 221.916 M 868.098 222.382 C 867.309 223.332, 867.037 229.041, 867.225 240.632 L 867.500 257.500 881.834 257.500 L 896.167 257.500 899.084 254.234 C 902.708 250.176, 903.050 244.746, 899.893 241.386 C 897.922 239.288, 897.890 238.995, 899.393 236.849 C 903.366 231.177, 900.061 224.221, 892.378 222.088 C 886.538 220.466, 869.517 220.673, 868.098 222.382 M 581.635 232.073 C 580.186 233.212, 579 234.562, 579 235.073 C 579 236.279, 592.705 236.286, 593.451 235.080 C 594.270 233.754, 589.133 230, 586.500 230 C 585.273 230, 583.084 230.933, 581.635 232.073 M 878.638 231.500 C 877.401 234.724, 879.059 236.112, 883.774 235.800 C 888.829 235.465, 891.772 232.754, 889 230.987 C 886.549 229.425, 879.297 229.784, 878.638 231.500 M 791.229 231.669 C 789.408 232.402, 787 237.446, 787 240.527 C 787 243.927, 792.009 249, 795.367 249 C 796.754 249, 799.100 247.958, 800.581 246.684 C 806.285 241.778, 802.794 230.894, 795.576 231.079 C 793.884 231.122, 791.928 231.388, 791.229 231.669 M 834.455 233.455 C 827.597 240.312, 835.288 252.005, 843.771 247.618 C 847.226 245.832, 848 244.271, 848 239.093 C 848 231.701, 839.674 228.235, 834.455 233.455 M 184.250 244.031 C 179.921 245.771, 182.255 250, 187.545 250 C 191.111 250, 194.564 246.912, 193.653 244.537 C 192.995 242.823, 187.933 242.551, 184.250 244.031 M 261.250 244.031 C 258.664 245.071, 258.237 248.493, 260.582 249.393 C 265.225 251.175, 271.689 247.959, 270.370 244.523 C 269.720 242.827, 264.892 242.567, 261.250 244.031 M 455.893 244.885 C 453.897 246.502, 453.756 247.001, 454.905 248.385 C 457.939 252.041, 467.253 248.707, 465.653 244.537 C 464.817 242.359, 458.746 242.575, 455.893 244.885 M 745.250 244.031 C 740.921 245.771, 743.255 250, 748.545 250 C 751.588 250, 755 247.504, 755 245.278 C 755 243.062, 749.433 242.350, 745.250 244.031 M 879.311 244.250 C 878.798 244.938, 878.461 246.063, 878.564 246.750 C 878.666 247.438, 878.806 248.450, 878.875 249 C 879.039 250.315, 886.591 250.289, 889.066 248.965 C 893.365 246.664, 890.062 243, 883.688 243 C 881.794 243, 879.825 243.563, 879.311 244.250" stroke="none" fill="black" fill-rule="evenodd"/>
</svg>