<svg xmlns="http://www.w3.org/2000/svg" width="48" height="48" viewBox="0 0 48 48" version="1.1">
	<path d="M 1.500 8 C 0.461 9.681, 1.970 11, 4.933 11 C 7.732 11, 7.756 11.057, 9.345 21.243 C 10.483 28.535, 11.450 31.856, 12.703 32.772 C 14.847 34.340, 37.500 34.091, 37.500 32.500 C 37.500 31.921, 32.693 31.290, 26.080 31 C 18.205 30.655, 14.532 30.112, 14.247 29.250 C 13.932 28.299, 16.558 28, 25.226 28 C 32.773 28, 37.187 27.578, 38.305 26.750 C 40.086 25.430, 42.525 14.811, 41.600 12.401 C 41.173 11.286, 38.015 11, 26.148 11 C 12.074 11, 11.204 10.887, 10.710 9 C 10.296 7.417, 9.346 7, 6.153 7 C 3.934 7, 1.840 7.450, 1.500 8 M 12.011 15.750 C 12.017 16.712, 12.301 19.188, 12.642 21.250 L 13.262 25 24.656 25 C 35.966 25, 36.057 24.981, 37.025 22.435 C 37.561 21.024, 38 18.549, 38 16.935 L 38 14 25 14 C 13.282 14, 12.001 14.173, 12.011 15.750 M 13.718 38.250 C 13.078 40.036, 14.813 43, 16.500 43 C 18.187 43, 19.922 40.036, 19.282 38.250 C 19.035 37.563, 17.783 37, 16.500 37 C 15.217 37, 13.965 37.563, 13.718 38.250 M 30.709 37.624 C 29.464 38.869, 29.948 41.766, 31.500 42.362 C 33.956 43.304, 36.131 41.920, 35.803 39.623 C 35.503 37.520, 32.135 36.199, 30.709 37.624" stroke="none" fill="currentColor" fill-rule="evenodd"/>
</svg>
